<svg width="18" height="22" viewBox="0 0 18 22" fill="none" xmlns="http://www.w3.org/2000/svg">
<path d="M9.01997 1.91C5.70997 1.91 3.01997 4.6 3.01997 7.91V10.8C3.01997 11.41 2.75997 12.34 2.44997 12.86L1.29997 14.77C0.589966 15.95 1.07997 17.26 2.37997 17.7C6.68997 19.14 11.34 19.14 15.65 17.7C16.86 17.3 17.39 15.87 16.73 14.77L15.58 12.86C15.28 12.34 15.02 11.41 15.02 10.8V7.91C15.02 4.61 12.32 1.91 9.01997 1.91Z" fill="#FF6861"/>
<path d="M10.87 2.2C10.56 2.11 10.24 2.04 9.90997 2C8.94997 1.88 8.02997 1.95 7.16997 2.2C7.45997 1.46 8.17997 0.940002 9.01997 0.940002C9.85997 0.940002 10.58 1.46 10.87 2.2Z" fill="#FF6861"/>
<path d="M12 20C12 21.1 10.65 22 8.99997 22C8.17997 22 7.41997 21.7733 6.87997 21.4133C6.33997 21.0533 5.99997 20.5467 5.99997 20" fill="#FF6861"/>
</svg>
