<svg width="12" height="11" viewBox="0 0 12 11" fill="none" xmlns="http://www.w3.org/2000/svg">
<path fill-rule="evenodd" clip-rule="evenodd" d="M0.666626 11V2.33333C0.666626 1.8029 0.87734 1.29419 1.25241 0.919115C1.62749 0.544042 2.13619 0.333328 2.66663 0.333328H9.33329C9.86373 0.333328 10.3724 0.544042 10.7475 0.919115C11.1226 1.29419 11.3333 1.8029 11.3333 2.33333V6.33333C11.3333 6.86376 11.1226 7.37247 10.7475 7.74754C10.3724 8.12261 9.86373 8.33333 9.33329 8.33333H3.33329L0.666626 11ZM2.83329 3C2.83329 2.72385 3.05714 2.5 3.33329 2.5H8.66662C8.94276 2.5 9.16662 2.72385 9.16662 3C9.16662 3.27614 8.94276 3.5 8.66662 3.5H3.33329C3.05714 3.5 2.83329 3.27614 2.83329 3ZM3.33329 5.16666C3.05714 5.16666 2.83329 5.39052 2.83329 5.66666C2.83329 5.94281 3.05714 6.16666 3.33329 6.16666H7.33329C7.60943 6.16666 7.83329 5.94281 7.83329 5.66666C7.83329 5.39052 7.60943 5.16666 7.33329 5.16666H3.33329Z" fill="#FF6861"/>
</svg>
