<svg width="14" height="12" viewBox="0 0 14 12" fill="none" xmlns="http://www.w3.org/2000/svg">
<path d="M13.4133 3.33333V6.80117C13.4133 7.7345 13.0133 8.06784 12.08 8.06784H11.4133C10.48 8.06784 10.08 7.7345 10.08 6.80117V3.33333C10.08 2.4 10.48 2.06667 11.4133 2.06667H12.08C13.0133 2.06667 13.4133 2.4 13.4133 3.33333Z" fill="#FF6861"/>
<path d="M7.49998 1C7.27366 0.743344 5.84372 2.17647e-07 5.50424 1.87968e-07L3.35413 0C2.67515 -5.93583e-08 1.93959 0.577478 1.76985 1.34745L0.41189 6.03143C0.128982 6.92973 0.638216 7.6997 1.48694 7.6997H3.7502C4.08969 7.6997 4.3726 8.02052 4.31602 8.46967L4.03311 10.5229C3.91995 11.1004 4.25944 11.742 4.76867 11.9345C5.22133 12.127 5.78714 11.8704 6.01347 11.4854L8.72939 8.336C8.88326 8.15757 9.02824 7.96894 9.12048 7.75214C9.26046 7.42312 9.33332 7.06814 9.33332 6.70818V3C9.33332 2.23258 8.07668 1.50631 7.49998 1Z" fill="#FF6861"/>
</svg>
