<svg width="14" height="10" viewBox="0 0 14 10" fill="none" xmlns="http://www.w3.org/2000/svg">
<path d="M6.16669 4.99999C6.16669 4.53975 6.53978 4.16666 7.00002 4.16666C7.46026 4.16666 7.83335 4.53975 7.83335 4.99999C7.83335 5.46023 7.46026 5.83332 7.00002 5.83332C6.53978 5.83332 6.16669 5.46023 6.16669 4.99999Z" fill="#FF6861"/>
<path fill-rule="evenodd" clip-rule="evenodd" d="M6.99998 9.66668C9.66665 9.66668 11.8886 8.11134 13.6666 5.00001C11.8886 1.88868 9.66665 0.333344 6.99998 0.333344C4.33331 0.333344 2.11131 1.88868 0.333313 5.00001C2.11131 8.11134 4.33331 9.66668 6.99998 9.66668ZM7.00002 3.16666C5.9875 3.16666 5.16669 3.98747 5.16669 4.99999C5.16669 6.01251 5.9875 6.83332 7.00002 6.83332C8.01254 6.83332 8.83335 6.01251 8.83335 4.99999C8.83335 3.98747 8.01254 3.16666 7.00002 3.16666Z" fill="#FF6861"/>
</svg>
